<?xml version="1.0" standalone="no"?>
<!DOCTYPE svg PUBLIC "-//W3C//DTD SVG 20010904//EN"
 "http://www.w3.org/TR/2001/REC-SVG-20010904/DTD/svg10.dtd">
<svg version="1.0" xmlns="http://www.w3.org/2000/svg"
 width="500.000000pt" height="500.000000pt" viewBox="0 0 500.000000 500.000000"
 preserveAspectRatio="xMidYMid meet">

<g transform="translate(0.000000,500.000000) scale(0.100000,-0.100000)"
fill="#000000" stroke="none">
<path d="M2395 4363 c-423 -34 -789 -175 -1091 -421 -354 -287 -576 -655 -666
-1102 -20 -101 -23 -143 -23 -340 1 -205 3 -236 28 -350 35 -165 98 -352 157
-471 166 -330 415 -600 725 -786 420 -251 920 -334 1375 -228 238 56 384 112
561 218 134 80 154 94 272 194 268 226 461 515 566 845 76 239 85 301 85 578
1 276 -8 337 -84 574 -49 157 -98 262 -190 408 -191 307 -475 555 -824 718
-251 118 -620 185 -891 163z m-314 -952 c113 -36 221 -119 283 -218 28 -46 63
-181 53 -207 -5 -13 -27 -16 -130 -16 l-123 0 -23 56 c-46 110 -126 156 -275
156 -107 0 -160 -17 -212 -67 -77 -74 -83 -168 -15 -236 32 -33 59 -44 231
-99 107 -33 226 -73 264 -87 88 -33 206 -112 239 -160 95 -138 108 -307 35
-466 -72 -156 -257 -256 -478 -257 l-75 0 -74 -55 -74 -55 -209 0 -209 0 -33
-35 c-28 -30 -40 -35 -77 -35 -101 1 -145 106 -75 176 49 49 95 48 148 -6 l40
-40 195 0 c198 0 230 5 261 43 10 11 2 16 -46 26 -103 23 -208 81 -286 158
-44 43 -104 161 -121 237 l-11 51 -91 3 c-85 3 -92 1 -98 -18 -15 -49 -108
-76 -151 -45 -32 22 -57 81 -49 115 10 44 58 80 107 80 32 0 47 -7 75 -35 l35
-35 222 0 222 0 12 -57 c29 -140 144 -213 339 -213 136 0 220 43 257 132 20
48 20 87 0 138 -24 60 -67 79 -394 175 -237 70 -350 145 -410 271 -76 157 -51
364 57 484 84 92 179 141 318 164 71 11 280 -3 346 -23z m1389 -9 c133 -45
226 -122 283 -237 29 -58 57 -182 57 -255 0 -70 -27 -195 -56 -255 -48 -102
-150 -199 -251 -238 -63 -25 -196 -37 -400 -37 l-183 0 0 -275 0 -275 -100 0
-100 0 0 -60 0 -60 165 0 165 0 133 135 133 135 212 0 c201 0 211 1 217 20 19
60 111 79 164 34 54 -45 49 -127 -11 -168 -42 -30 -114 -14 -143 31 -15 23
-17 23 -215 23 l-199 0 -130 -132 -129 -133 -147 -5 -147 -5 38 -37 37 -38
259 0 259 0 26 31 c35 41 67 52 109 39 91 -30 102 -156 17 -199 -50 -25 -123
0 -138 49 -6 19 -16 20 -280 20 l-275 0 -77 70 c-42 39 -88 87 -102 107 l-26
36 -4 838 c-1 462 0 846 3 855 5 14 47 15 389 12 359 -4 386 -6 447 -26z"/>
<path d="M972 2344 c-27 -19 -28 -45 -2 -69 44 -40 97 27 54 69 -19 20 -24 20
-52 0z"/>
<path d="M1142 1768 c-28 -28 -7 -78 33 -78 27 0 45 18 45 47 0 35 -53 56 -78
31z"/>
<path d="M2920 2905 l0 -265 33 -1 c17 -1 111 -1 207 0 169 1 177 2 230 29
135 67 180 266 91 396 -61 88 -126 106 -393 106 l-168 0 0 -265z"/>
<path d="M3812 1988 c-18 -18 -14 -56 7 -68 29 -15 39 -13 57 15 16 24 16 27
-1 45 -20 23 -45 26 -63 8z"/>
<path d="M3450 1565 c-7 -8 -10 -25 -6 -39 11 -45 71 -45 82 0 8 30 -11 54
-41 54 -12 0 -28 -7 -35 -15z"/>
</g>
</svg>
